<svg xmlns="http://www.w3.org/2000/svg" viewBox="0 0 292.87 186.61"><defs><style>.cls-1,.cls-2{fill:none;stroke:#2a2927;stroke-width:9px;}.cls-1{stroke-linejoin:bevel;}.cls-2{stroke-miterlimit:10;}</style></defs><title>icon secondfitz</title><g id="Layer_2" data-name="Layer 2"><g id="Layer_1-2" data-name="Layer 1"><path class="cls-1" d="M288.37,171a10.5,10.5,0,0,1-16.3,8.74l-125.19-83L20.81,180.36A10.5,10.5,0,1,1,9.2,162.86l136.2-90.3.84,1.27L147.47,72l136.2,90.3A10.49,10.49,0,0,1,288.37,171Z"/><path class="cls-2" d="M120.49,30s3.34-25.5,25.67-25.5c8.4,0,13.85,3.61,17.39,8.11a24.38,24.38,0,0,1,1.1,28.05c-3.86,6.09-9.92,13.11-18.49,16.25-.17,1.59,0,15.06,0,15.06"/><line class="cls-2" x1="44.06" y1="164.94" x2="249.69" y2="164.94"/></g></g></svg>